<!-- EduGameHQ Apple Touch Icon - 180x180 -->
<svg width="180" height="180" viewBox="0 0 180 180" xmlns="http://www.w3.org/2000/svg">
  <defs>
    <linearGradient id="apple-gradient" x1="0%" y1="0%" x2="100%" y2="100%">
      <stop offset="0%" style="stop-color:#FF6B35; stop-opacity:1" />
      <stop offset="50%" style="stop-color:#F7931E; stop-opacity:1" />
      <stop offset="100%" style="stop-color:#8B5CF6; stop-opacity:1" />
    </linearGradient>
    
    <filter id="shadow">
      <feDropShadow dx="0" dy="6" stdDeviation="6" flood-opacity="0.3"/>
    </filter>
  </defs>

  <!-- 背景圆角矩形（iOS风格） -->
  <rect width="180" height="180" rx="40" ry="40" fill="#FFFFFF"/>

  <!-- 游戏手柄图标 -->
  <g transform="translate(30, 40)" filter="url(#shadow)">
    <rect x="0" y="30" width="120" height="70" rx="35" ry="35" fill="url(#apple-gradient)"/>
    <ellipse cx="13" cy="87" rx="23" ry="29" fill="url(#apple-gradient)"/>
    <ellipse cx="107" cy="87" rx="23" ry="29" fill="url(#apple-gradient)"/>
    
    <!-- 书本 -->
    <g transform="translate(60, 65)">
      <path d="M-23 -18 L-23 18 L-3 12 L-3 -23 Z" fill="white" opacity="0.95"/>
      <path d="M3 -23 L3 12 L23 18 L23 -18 Z" fill="white" opacity="0.95"/>
      <line x1="0" y1="-23" x2="0" y2="12" stroke="white" stroke-width="4" opacity="0.6"/>
      
      <line x1="-18" y1="-12" x2="-6" y2="-12" stroke="#60A5FA" stroke-width="2.5" opacity="0.8"/>
      <line x1="-18" y1="-3" x2="-6" y2="-3" stroke="#60A5FA" stroke-width="2.5" opacity="0.8"/>
      <line x1="-18" y1="6" x2="-6" y2="6" stroke="#60A5FA" stroke-width="2.5" opacity="0.8"/>
      
      <line x1="6" y1="-12" x2="18" y2="-12" stroke="#60A5FA" stroke-width="2.5" opacity="0.8"/>
      <line x1="6" y1="-3" x2="18" y2="-3" stroke="#60A5FA" stroke-width="2.5" opacity="0.8"/>
      <line x1="6" y1="6" x2="18" y2="6" stroke="#60A5FA" stroke-width="2.5" opacity="0.8"/>
    </g>

    <!-- 按钮 -->
    <circle cx="23" cy="50" r="7" fill="white" opacity="0.9"/>
    <circle cx="23" cy="80" r="7" fill="white" opacity="0.9"/>
    <circle cx="10" cy="65" r="7" fill="white" opacity="0.9"/>
    <circle cx="36" cy="65" r="7" fill="white" opacity="0.9"/>
    
    <circle cx="97" cy="50" r="7" fill="white" opacity="0.9"/>
    <circle cx="110" cy="65" r="7" fill="white" opacity="0.9"/>
    <circle cx="97" cy="80" r="7" fill="white" opacity="0.9"/>
    <circle cx="84" cy="65" r="7" fill="white" opacity="0.9"/>
  </g>
</svg>
