<?xml version="1.0" encoding="UTF-8"?>
<svg width="180" height="180" viewBox="0 0 180 180" xmlns="http://www.w3.org/2000/svg">
  <defs>
    <linearGradient id="brainLarge" x1="0%" y1="0%" x2="100%" y2="100%">
      <stop offset="0%" style="stop-color:#4F8EF7;stop-opacity:1" />
      <stop offset="100%" style="stop-color:#2563EB;stop-opacity:1" />
    </linearGradient>
    
    <linearGradient id="circuitLarge" x1="0%" y1="0%" x2="100%" y2="100%">
      <stop offset="0%" style="stop-color:#34D399;stop-opacity:1" />
      <stop offset="100%" style="stop-color:#10B981;stop-opacity:1" />
    </linearGradient>
    
    <linearGradient id="gamepadLarge" x1="0%" y1="0%" x2="100%" y2="100%">
      <stop offset="0%" style="stop-color:#1F2937;stop-opacity:1" />
      <stop offset="100%" style="stop-color:#111827;stop-opacity:1" />
    </linearGradient>
  </defs>
  
  <!-- iOS风格圆角背景 -->
  <rect width="180" height="180" rx="40" fill="#F8FAFC"/>
  
  <!-- 主要内容区域 -->
  <g transform="translate(90, 60)">
    <!-- 大脑主体轮廓 -->
    <path d="M-25 -15 
             C-35 -25, -20 -35, 0 -30
             C20 -40, 40 -30, 50 -10
             C60 0, 55 25, 45 35
             C50 45, 40 55, 25 50
             C15 60, -15 55, -25 40
             C-35 50, -45 35, -30 15
             C-45 0, -35 -15, -25 -15 Z" 
          fill="url(#brainLarge)" 
          stroke="#2563EB" 
          stroke-width="3"/>
    
    <!-- 大脑内部电路纹理 -->
    <g fill="url(#circuitLarge)" opacity="0.8">
      <!-- 左半球电路 -->
      <path d="M-20 -5 L-10 5 L-15 20 L-20 15 Z"/>
      <path d="M-15 0 L-5 -5 L-8 15 L-10 5 Z"/>
      <circle cx="-12" cy="8" r="4"/>
      
      <!-- 右半球电路 -->
      <path d="M15 -5 L25 0 L22 15 L18 10 Z"/>
      <path d="M20 5 L35 15 L30 25 L20 20 Z"/>
      <circle cx="25" cy="12" r="4"/>
      
      <!-- 中央连接线 -->
      <path d="M0 5 L15 5" stroke="url(#circuitLarge)" stroke-width="3" fill="none"/>
      <path d="M-8 15 L22 15" stroke="url(#circuitLarge)" stroke-width="2.5" fill="none"/>
      <path d="M-5 25 L20 25" stroke="url(#circuitLarge)" stroke-width="2" fill="none"/>
    </g>
  </g>
  
  <!-- 游戏手柄 -->
  <g transform="translate(90, 135)">
    <!-- 手柄主体 -->
    <ellipse cx="0" cy="0" rx="35" ry="22" fill="url(#gamepadLarge)" stroke="#000000" stroke-width="2"/>
    
    <!-- 左侧方向键 -->
    <g transform="translate(-20, -3)">
      <rect x="-2" y="-8" width="4" height="16" rx="2" fill="#FFFFFF"/>
      <rect x="-8" y="-2" width="16" height="4" rx="2" fill="#FFFFFF"/>
    </g>
    
    <!-- 右侧按钮 -->
    <circle cx="15" cy="-6" r="4" fill="#34D399"/>
    <circle cx="23" cy="0" r="4" fill="#34D399"/>
    <circle cx="15" cy="6" r="4" fill="#34D399"/>
    <circle cx="7" cy="0" r="4" fill="#34D399"/>
    
    <!-- 手柄握把 -->
    <ellipse cx="-22" cy="15" rx="8" ry="12" fill="url(#gamepadLarge)"/>
    <ellipse cx="22" cy="15" rx="8" ry="12" fill="url(#gamepadLarge)"/>
    
    <!-- 装饰细节 -->
    <ellipse cx="0" cy="-8" rx="6" ry="3" fill="#374151" opacity="0.5"/>
    <ellipse cx="0" cy="8" rx="8" ry="2" fill="#374151" opacity="0.3"/>
  </g>
  
  <!-- 连接线 - 表示大脑与游戏的结合 -->
  <path d="M90 95 Q110 105 90 115" stroke="#10B981" stroke-width="3" fill="none" opacity="0.6"/>
</svg>