<?xml version="1.0" encoding="UTF-8"?>
<svg width="80" height="80" viewBox="0 0 80 80" xmlns="http://www.w3.org/2000/svg">
  <!-- 定义渐变和样式 -->
  <defs>
    <!-- 大脑外轮廓渐变 - 蓝色 -->
    <linearGradient id="brainOutline" x1="0%" y1="0%" x2="100%" y2="100%">
      <stop offset="0%" style="stop-color:#4F8EF7;stop-opacity:1" />
      <stop offset="100%" style="stop-color:#2563EB;stop-opacity:1" />
    </linearGradient>
    
    <!-- 大脑内部电路 - 绿色 -->
    <linearGradient id="brainCircuit" x1="0%" y1="0%" x2="100%" y2="100%">
      <stop offset="0%" style="stop-color:#34D399;stop-opacity:1" />
      <stop offset="100%" style="stop-color:#10B981;stop-opacity:1" />
    </linearGradient>
    
    <!-- 游戏手柄 - 黑色 -->
    <linearGradient id="gamepadColor" x1="0%" y1="0%" x2="100%" y2="100%">
      <stop offset="0%" style="stop-color:#1F2937;stop-opacity:1" />
      <stop offset="100%" style="stop-color:#111827;stop-opacity:1" />
    </linearGradient>
  </defs>
  
  <!-- 大脑主体轮廓 -->
  <path d="M20 25 
           C15 20, 25 15, 35 18
           C45 12, 55 15, 60 22
           C65 25, 62 35, 58 40
           C60 45, 55 50, 50 48
           C45 52, 35 50, 30 45
           C25 48, 15 45, 18 35
           C12 30, 15 25, 20 25 Z" 
        fill="url(#brainOutline)" 
        stroke="#2563EB" 
        stroke-width="2"/>
  
  <!-- 大脑内部电路纹理 -->
  <g fill="url(#brainCircuit)" opacity="0.8">
    <!-- 左半球电路 -->
    <path d="M22 28 L28 32 L25 38 L22 35 Z"/>
    <path d="M25 30 L32 28 L30 35 L28 32 Z"/>
    <circle cx="26" cy="33" r="2"/>
    
    <!-- 右半球电路 -->
    <path d="M45 28 L52 30 L50 36 L47 33 Z"/>
    <path d="M48 32 L55 35 L52 40 L48 38 Z"/>
    <circle cx="50" cy="34" r="2"/>
    
    <!-- 中央连接线 -->
    <path d="M35 32 L45 32" stroke="url(#brainCircuit)" stroke-width="2" fill="none"/>
    <path d="M32 36 L48 36" stroke="url(#brainCircuit)" stroke-width="1.5" fill="none"/>
  </g>
  
  <!-- 游戏手柄 -->
  <g transform="translate(45, 50)">
    <!-- 手柄主体 -->
    <ellipse cx="0" cy="0" rx="18" ry="12" fill="url(#gamepadColor)" stroke="#000000" stroke-width="1"/>
    
    <!-- 左侧方向键 -->
    <g transform="translate(-10, -2)">
      <rect x="-1" y="-4" width="2" height="8" rx="1" fill="#FFFFFF"/>
      <rect x="-4" y="-1" width="8" height="2" rx="1" fill="#FFFFFF"/>
    </g>
    
    <!-- 右侧按钮 -->
    <circle cx="8" cy="-3" r="2" fill="#34D399"/>
    <circle cx="12" cy="0" r="2" fill="#34D399"/>
    <circle cx="8" cy="3" r="2" fill="#34D399"/>
    <circle cx="4" cy="0" r="2" fill="#34D399"/>
    
    <!-- 手柄握把 -->
    <ellipse cx="-12" cy="8" rx="4" ry="6" fill="url(#gamepadColor)"/>
    <ellipse cx="12" cy="8" rx="4" ry="6" fill="url(#gamepadColor)"/>
  </g>
  
  <!-- 连接线 - 表示大脑与游戏的结合 -->
  <path d="M40 42 Q50 48 45 55" stroke="#10B981" stroke-width="2" fill="none" opacity="0.6"/>
</svg> 